<?xml version="1.0" encoding="UTF-8" standalone="yes"?>
<svg width="512" height="512" viewBox="45 45 110 110" xmlns="http://www.w3.org/2000/svg">
  <circle cx="100" cy="100" r="50" fill="#111133"/>
  <path d="M100 70C82.5 70 68.5 84 68.5 101.5C68.5 119 82.5 133 100 133C117.5 133 131.5 119 131.5 101.5C131.5 94.5 129 88 124.5 83" stroke="#ffc111" stroke-width="6" stroke-linecap="round" fill="none"/>
  <path d="M100 77.5V85M100 118V125.5M111.5 92.5C111.5 86.5 106 82 100 82C94 82 88.5 86.5 88.5 92.5C88.5 98.5 94 101.5 100 101.5C106 101.5 111.5 104.5 111.5 110.5C111.5 116.5 106 121 100 121C94 121 88.5 116.5 88.5 110.5" stroke="#ffffff" stroke-width="5" stroke-linecap="round" fill="none"/>
  <circle cx="80" cy="80" r="4" fill="#ffffff" opacity="0.6"/>
</svg>