<svg viewBox="0 0 100 100" xmlns="http://www.w3.org/2000/svg">
  <defs>
    <linearGradient id="cogGradient" x1="0%" y1="0%" x2="100%" y2="100%">
      <stop offset="0%" style="stop-color:#E0E0E0; stop-opacity:0.9" /> 
      <stop offset="100%" style="stop-color:#A0A0A0; stop-opacity:0.7" />
    </linearGradient>
    <radialGradient id="corePulse" cx="50%" cy="50%" r="50%" fx="50%" fy="50%">
      <stop offset="0%" stop-color="#C0C0C0" stop-opacity="0.9" />
      <stop offset="100%" stop-color="#808080" stop-opacity="0.7" />
    </radialGradient>
  </defs>

  <!-- Back outline (Outer border only, aligned, rotated 45 degrees relative to main) -->
  <g transform="rotate(67.5, 50, 50)">
    <path 
      fill="none"
      stroke="#404040"
      stroke-width="1"
      stroke-linejoin="round"
      opacity="0.4"
      d="M50 15 A 10 10 0 0 1 60.45 19.55 L 67.07 26.17 A 5 5 0 0 1 70.61 32.93 L 70.61 32.93 A 35 35 0 0 1 80.45 39.55 L 80.45 39.55 A 10 10 0 0 1 85 50 A 10 10 0 0 1 80.45 60.45 L 73.83 67.07 A 5 5 0 0 1 67.07 70.61 L 67.07 70.61 A 35 35 0 0 1 60.45 80.45 L 60.45 80.45 A 10 10 0 0 1 50 85 A 10 10 0 0 1 39.55 80.45 L 32.93 73.83 A 5 5 0 0 1 29.39 67.07 L 29.39 67.07 A 35 35 0 0 1 19.55 60.45 L 19.55 60.45 A 10 10 0 0 1 15 50 A 10 10 0 0 1 19.55 39.55 L 26.17 32.93 A 5 5 0 0 1 32.93 29.39 L 32.93 29.39 A 35 35 0 0 1 39.55 19.55 L 39.55 19.55 A 10 10 0 0 1 50 15 Z"
    />
  </g>

  <!-- Main shape (Rotated 22.5 degrees) -->
  <g transform="rotate(22.5, 50, 50)">
    <path 
      fill="url(#cogGradient)"
      stroke="#404040"
      stroke-width="1"
      stroke-linejoin="round"
      d="M50 15 A 10 10 0 0 1 60.45 19.55 L 67.07 26.17 A 5 5 0 0 1 70.61 32.93 L 70.61 32.93 A 35 35 0 0 1 80.45 39.55 L 80.45 39.55 A 10 10 0 0 1 85 50 A 10 10 0 0 1 80.45 60.45 L 73.83 67.07 A 5 5 0 0 1 67.07 70.61 L 67.07 70.61 A 35 35 0 0 1 60.45 80.45 L 60.45 80.45 A 10 10 0 0 1 50 85 A 10 10 0 0 1 39.55 80.45 L 32.93 73.83 A 5 5 0 0 1 29.39 67.07 L 29.39 67.07 A 35 35 0 0 1 19.55 60.45 L 19.55 60.45 A 10 10 0 0 1 15 50 A 10 10 0 0 1 19.55 39.55 L 26.17 32.93 A 5 5 0 0 1 32.93 29.39 L 32.93 29.39 A 35 35 0 0 1 39.55 19.55 L 39.55 19.55 A 10 10 0 0 1 50 15 Z M 50 25 A 4 4 0 0 1 55 29 L 65 40 A 5 5 0 0 1 70 45 L 70 55 A 5 5 0 0 1 65 60 L 55 72 A 4 4 0 0 1 50 75 A 4 4 0 0 1 45 72 L 35 60 A 5 5 0 0 1 30 55 L 30 45 A 5 5 0 0 1 35 40 L 45 29 A 4 4 0 0 1 50 25 Z" 
      fill-rule="evenodd"
    />
    
    <circle cx="50" cy="50" r="12" fill="url(#corePulse)" />
  </g>
</svg> 